<svg xmlns="http://www.w3.org/2000/svg" version="1.1" xmlns:xlink="http://www.w3.org/1999/xlink" xmlns:svgjs="http://svgjs.com/svgjs" width="512" height="512" x="0" y="0" viewBox="0 0 512 512" style="enable-background:new 0 0 512 512" xml:space="preserve" class=""><g><circle cx="256" cy="256" r="256" style="" fill="#ff2828" data-original="#ffca28"></circle><path d="M357.824 394.176a16.07 16.07 0 0 1-11.328-4.672c-48.384-48.384-132.672-48.384-181.024 0-6.24 6.24-16.384 6.24-22.624 0s-6.24-16.384 0-22.624C173.088 336.672 213.248 320 256 320s82.912 16.672 113.12 46.88c6.24 6.24 6.24 16.384 0 22.624-3.104 3.136-7.2 4.672-11.296 4.672z" style="" fill="#000000" data-original="#6d4c41" class=""></path><circle cx="160" cy="192" r="32" style="" fill="#000000" data-original="#6d4c41" class=""></circle><circle cx="352" cy="192" r="32" style="" fill="#000000" data-original="#6d4c41" class=""></circle></g></svg>